# xmcd
#
# Track frame offsets:
#	150
#	14430
#	29207
#	56643
#	69588
#	96871
#	109768
#	122892
#	142062
#	155931
#	172987
#	195514
#	216158
#	236247
#	252227
#
# Disc length: 3619 seconds
#
# Revision: 0
# Processed by: cddbd v1.5.2PL0 Copyright (c) Steve Scherf et al.
# Submitted via: audiograbber 1.83.01
#
DISCID=e70e210f
DTITLE=TÉO AZEVEDO - BLUES MATUTO
DYEAR=2004
DGENRE=Blues
TTITLE0=Blues da favela
TTITLE1=O vaqueiro e o aboio
TTITLE2=A balada de Robert Johnson
TTITLE3=A borboleta amazônica
TTITLE4=A bala de ouro
TTITLE5=Presépio
TTITLE6=A formação do ser humano
TTITLE7=For Bob Keys
TTITLE8=Estrelas do céu e da terra
TTITLE9=A lenda do rio abaixo
TTITLE10=A gaita e a sanfona
TTITLE11=De repente blues
TTITLE12=Desaconteço
TTITLE13=Puxe o fole sanfoneiro
TTITLE14=Meu orgulho é ser vaqueiro
EXTD=
EXTT0=
EXTT1=
EXTT2=
EXTT3=
EXTT4=
EXTT5=
EXTT6=
EXTT7=
EXTT8=
EXTT9=
EXTT10=
EXTT11=
EXTT12=
EXTT13=
EXTT14=
PLAYORDER=
